HIERARCHY
ROOT Hips
{
	OFFSET -0.001795 -0.223333 0.028219
	CHANNELS 6 Xposition Yposition Zposition Zrotation Yrotation Xrotation 
	JOINT LeftUpLeg
	{
		OFFSET 0.069520 -0.091406 -0.006815
		CHANNELS 3 Zrotation Yrotation Xrotation
		JOINT LeftLeg
		{
			OFFSET 0.034277 -0.375199 -0.004496
			CHANNELS 3 Zrotation Yrotation Xrotation
			JOINT LeftFoot
			{
				OFFSET -0.013596 -0.397961 -0.043693
				CHANNELS 3 Zrotation Yrotation Xrotation
				JOINT LeftToe
				{
					OFFSET 0.026358 -0.055791 0.119288
					CHANNELS 3 Zrotation Yrotation Xrotation
					End Site
					{
						OFFSET 0.000000 0.000000 0.000000
					}
				}
			}
		}
	}
	JOINT RightUpLeg
	{
		OFFSET -0.067670 -0.090522 -0.004320
		CHANNELS 3 Zrotation Yrotation Xrotation
		JOINT RightLeg
		{
			OFFSET -0.038290 -0.382569 -0.008850
			CHANNELS 3 Zrotation Yrotation Xrotation
			JOINT RightFoot
			{
				OFFSET 0.015774 -0.398415 -0.042312
				CHANNELS 3 Zrotation Yrotation Xrotation
				JOINT RightToe
				{
					OFFSET -0.025372 -0.048144 0.123348
					CHANNELS 3 Zrotation Yrotation Xrotation
					End Site
					{
						OFFSET 0.000000 0.000000 0.000000
					}
				}
			}
		}
	}
	JOINT Spine
	{
		OFFSET -0.002533 0.108963 -0.026696
		CHANNELS 3 Zrotation Yrotation Xrotation
		JOINT Spine1
		{
			OFFSET 0.005487 0.135180 0.001092
			CHANNELS 3 Zrotation Yrotation Xrotation
			JOINT Spine2
			{
				OFFSET 0.001457 0.052922 0.025425
				CHANNELS 3 Zrotation Yrotation Xrotation
				JOINT Neck
				{
					OFFSET -0.002778 0.213870 -0.042857
					CHANNELS 3 Zrotation Yrotation Xrotation
					JOINT Head
					{
						OFFSET 0.005152 0.064970 0.051349
						CHANNELS 3 Zrotation Yrotation Xrotation
						End Site
						{
							OFFSET 0.000000 0.000000 0.000000
						}
					}
				}
				JOINT LeftShoulder
				{
					OFFSET 0.078845 0.121749 -0.034090
					CHANNELS 3 Zrotation Yrotation Xrotation
					JOINT LeftArm
					{
						OFFSET 0.090977 0.030469 -0.008868
						CHANNELS 3 Zrotation Yrotation Xrotation
						JOINT LeftForeArm
						{
							OFFSET 0.259612 -0.012772 -0.027456
							CHANNELS 3 Zrotation Yrotation Xrotation
							JOINT LeftHand
							{
								OFFSET 0.249234 0.008986 -0.001171
								CHANNELS 3 Zrotation Yrotation Xrotation
								End Site
								{
									OFFSET 0.000000 0.000000 0.000000
								}
							}
						}
					}
				}
				JOINT RightShoulder
				{
					OFFSET -0.081759 0.118833 -0.038615
					CHANNELS 3 Zrotation Yrotation Xrotation
					JOINT RightArm
					{
						OFFSET -0.096012 0.032551 -0.009143
						CHANNELS 3 Zrotation Yrotation Xrotation
						JOINT RightForeArm
						{
							OFFSET -0.253742 -0.013329 -0.021401
							CHANNELS 3 Zrotation Yrotation Xrotation
							JOINT RightHand
							{
								OFFSET -0.255298 0.007772 -0.005559
								CHANNELS 3 Zrotation Yrotation Xrotation
								End Site
								{
									OFFSET 0.000000 0.000000 0.000000
								}
							}
						}
					}
				}
			}
		}
	}
}
MOTION
Frames: 11
Frame Time: 0.050000
-0.225054 0.859246 -0.185755 2.474336 -8.457598 19.735090 18.888001 5.349175 -47.740050 -13.661356 5.666886 31.620582 2.550365 10.738269 28.029731 0.000000 0.000000 0.000000 -20.871473 -1.114853 -56.163094 13.799452 -4.180370 39.376192 -14.762243 -32.106125 17.182408 0.000000 0.000000 0.000000 10.871524 -7.123216 63.947459 -3.742094 1.233176 -31.978168 -6.657594 3.908133 25.933472 17.049365 -3.415668 -42.840983 0.000000 0.000000 0.000000 15.809465 -33.879352 7.991051 -52.019433 -51.720623 17.121342 32.598880 -55.924790 -13.960257 0.000000 0.000000 0.000000 -0.631244 20.469977 7.671223 62.953321 58.254033 28.014520 -0.028923 53.710010 3.494620 0.000000 0.000000 0.000000 
-0.247534 0.858939 -0.189776 2.353009 -8.592019 20.065338 20.181843 5.868472 -47.194396 -13.146742 5.298376 30.463924 2.207818 10.465711 29.308308 0.000000 0.000000 0.000000 -20.009351 -0.711854 -56.914938 15.063283 -4.767638 39.664386 -14.916563 -32.789431 15.375471 0.000000 0.000000 0.000000 10.697713 -6.988941 64.324511 -3.625051 1.214432 -32.578714 -7.128533 3.607285 25.714590 17.444016 -3.480874 -43.156016 0.000000 0.000000 0.000000 15.743555 -33.103110 7.862357 -54.706350 -49.950059 17.418757 28.468714 -57.448044 -12.029829 0.000000 0.000000 0.000000 -0.622994 19.985075 7.492683 65.829435 57.946175 29.521726 0.008504 53.665489 3.519406 0.000000 0.000000 0.000000 
-0.270154 0.860678 -0.193248 2.281799 -8.383669 20.355142 20.939196 5.970185 -46.315600 -11.849644 4.493494 28.659140 1.738458 10.091805 30.634166 0.000000 0.000000 0.000000 -18.885624 -0.277858 -56.674082 15.489136 -4.913488 39.180305 -14.191888 -32.253798 12.542908 0.000000 0.000000 0.000000 10.582018 -6.956865 63.844105 -3.820409 1.245018 -32.532852 -7.327160 3.611059 25.786424 17.541480 -3.334628 -43.930976 0.000000 0.000000 0.000000 15.234742 -33.132463 8.010391 -55.810169 -47.406311 16.366302 23.584367 -60.668687 -9.919835 0.000000 0.000000 0.000000 -0.918546 19.109476 7.127880 67.864787 56.621652 29.771850 2.318290 53.919760 4.698944 0.000000 0.000000 0.000000 
-0.292497 0.863038 -0.196121 2.045538 -7.932249 20.570373 21.850410 6.106249 -45.592124 -10.590822 3.775945 27.168160 1.034845 9.582582 32.351501 0.000000 0.000000 0.000000 -17.905320 0.018589 -56.660278 16.483371 -5.338539 38.522585 -14.315339 -32.545742 12.042432 0.000000 0.000000 0.000000 10.378334 -7.019097 64.134723 -3.998335 1.276942 -33.210873 -7.504426 3.623272 25.955832 17.538831 -3.079192 -44.989647 0.000000 0.000000 0.000000 14.536022 -32.041850 7.957779 -57.608004 -45.078265 15.620826 13.691508 -64.345937 -4.360609 0.000000 0.000000 0.000000 -1.642335 18.405011 6.772841 69.091910 55.593212 29.781584 5.079397 54.584289 6.195507 0.000000 0.000000 0.000000 
-0.313717 0.863395 -0.198405 1.974574 -7.476420 20.294353 22.371209 5.990070 -44.486412 -16.647513 5.831695 25.325644 18.198810 28.492580 30.728619 0.000000 0.000000 0.000000 -16.640768 0.426405 -55.927239 16.256653 -5.144477 37.561536 -13.993375 -32.177306 11.177008 0.000000 0.000000 0.000000 10.069148 -6.969711 64.003482 -4.036709 1.287771 -32.961966 -7.684698 3.771102 25.694809 17.693142 -3.049374 -45.211225 0.000000 0.000000 0.000000 13.678392 -31.493244 8.064175 -58.994101 -41.843581 14.057580 2.065872 -68.064430 3.197684 0.000000 0.000000 0.000000 -1.159035 18.175724 6.776474 69.003917 54.378669 28.848290 7.955378 54.228476 7.624350 0.000000 0.000000 0.000000 
-0.332952 0.861572 -0.200051 1.692849 -6.709053 19.323906 22.926305 5.874493 -43.578277 -20.526968 7.134636 24.724505 27.242594 37.983002 30.330521 0.000000 0.000000 0.000000 -15.078197 0.860538 -55.263058 15.612528 -4.909472 37.686095 -14.025797 -32.006538 11.690481 0.000000 0.000000 0.000000 9.979884 -7.286570 65.003217 -4.302330 1.330594 -33.312610 -7.633170 3.470122 25.835207 17.592121 -3.108823 -44.961562 0.000000 0.000000 0.000000 12.828790 -30.557650 8.005391 -59.173203 -39.376667 12.568529 -13.364313 -70.953350 14.515501 0.000000 0.000000 0.000000 -1.347366 18.144309 6.699482 68.012360 52.968324 27.132660 12.033359 55.327112 9.933264 0.000000 0.000000 0.000000 
-0.349187 0.857567 -0.201069 1.396588 -6.159617 18.340820 23.307254 5.796767 -42.915165 -18.789985 6.585947 25.679878 26.276041 37.183226 29.779171 0.000000 0.000000 0.000000 -13.762403 1.252150 -54.726646 15.229871 -4.802418 38.092483 -14.113798 -32.067239 11.658348 0.000000 0.000000 0.000000 9.736404 -7.381596 65.625959 -4.669014 1.389484 -33.061883 -7.628440 3.512460 25.668037 17.556103 -3.208215 -44.419246 0.000000 0.000000 0.000000 12.904520 -30.057520 7.841919 -59.345079 -37.718664 11.534154 -27.214652 -71.427497 24.828096 0.000000 0.000000 0.000000 -1.487472 17.445820 6.409692 67.803267 52.309461 26.593920 16.816927 56.043363 12.701915 0.000000 0.000000 0.000000 
-0.361532 0.854643 -0.201275 1.230737 -5.687981 17.238927 23.464753 5.565278 -41.780031 -17.372157 6.027696 25.946542 25.504468 36.593487 29.107220 0.000000 0.000000 0.000000 -12.511362 1.618799 -53.806785 14.500572 -4.523754 38.474267 -14.050564 -31.969214 11.083616 0.000000 0.000000 0.000000 9.136215 -7.185905 66.115662 -4.578057 1.384092 -33.290436 -7.555744 3.586671 25.912313 17.290474 -3.113114 -44.606763 0.000000 0.000000 0.000000 11.913424 -29.229500 7.826457 -58.294887 -35.678562 9.895575 -41.300574 -71.384781 35.544492 0.000000 0.000000 0.000000 -0.989170 17.299334 6.403260 65.871302 50.740908 24.339731 22.932425 57.034739 16.467737 0.000000 0.000000 0.000000 
-0.369626 0.855529 -0.199850 1.417928 -4.609569 16.552488 22.482437 4.875232 -41.478903 -15.200121 5.130342 26.356985 24.404550 35.632884 28.751064 0.000000 0.000000 0.000000 -12.227384 1.395184 -52.878779 14.352107 -4.582583 38.300820 -14.470061 -32.275892 11.985896 0.000000 0.000000 0.000000 9.371014 -7.702518 65.283633 -4.968293 1.450439 -32.901264 -7.408873 3.550437 26.177523 17.190260 -3.274564 -43.812845 0.000000 0.000000 0.000000 11.226079 -29.147411 7.925862 -57.641398 -34.772930 9.105775 -45.925543 -70.472944 38.540777 0.000000 0.000000 0.000000 -0.750587 16.978411 6.305782 65.438889 49.705450 23.332007 27.568528 57.074580 19.197024 0.000000 0.000000 0.000000 
-0.373723 0.861347 -0.196600 1.618679 -4.165201 15.756398 21.182295 4.089537 -40.073850 -13.069875 4.176652 25.560211 23.667490 34.814619 29.001051 0.000000 0.000000 0.000000 -11.665667 1.429054 -50.506512 13.733283 -4.182913 36.554148 -14.396780 -32.173379 11.370069 0.000000 0.000000 0.000000 9.014323 -7.519269 64.380838 -5.068344 1.476147 -32.604557 -7.162174 3.781936 26.589885 17.704751 -3.696492 -42.956371 0.000000 0.000000 0.000000 9.476108 -29.344675 8.323311 -55.909327 -33.247819 7.693418 -48.941698 -69.868015 40.373575 0.000000 0.000000 0.000000 0.330529 16.842588 6.395913 63.108062 48.121122 20.991348 32.555548 57.501890 22.371425 0.000000 0.000000 0.000000 
-0.374645 0.870452 -0.191070 1.700028 -3.729580 15.323877 19.724882 3.288503 -38.490058 -10.888744 3.188357 24.017362 22.988618 33.993517 29.545645 0.000000 0.000000 0.000000 -11.536685 1.306201 -48.159603 12.988284 -3.773374 34.958977 -12.820756 -29.488364 10.648615 0.000000 0.000000 0.000000 9.065015 -7.458904 62.317286 -5.211280 1.525528 -31.361438 -7.176397 3.826995 26.466899 18.057751 -4.204980 -41.413503 0.000000 0.000000 0.000000 8.120019 -28.394621 8.338132 -55.231217 -31.876523 6.731308 -51.942709 -68.504134 41.738574 0.000000 0.000000 0.000000 2.044146 16.638082 6.559699 61.393764 46.528667 18.997565 37.105053 56.942950 24.870041 0.000000 0.000000 0.000000 
